<svg xmlns="http://www.w3.org/2000/svg" version="1.1" xmlns:xlink="http://www.w3.org/1999/xlink" width="200" height="200"><svg xmlns="http://www.w3.org/2000/svg" version="1.1" xmlns:xlink="http://www.w3.org/1999/xlink" viewBox="0 0 200 200"><rect width="200" height="200" fill="url('#gradient')"></rect><defs><linearGradient id="SvgjsLinearGradient1015" gradientTransform="rotate(45 0.5 0.5)"><stop offset="0%" stop-color="#0066cc"></stop><stop offset="100%" stop-color="#00cc88"></stop></linearGradient></defs><g><g fill="#f4f4f4" transform="matrix(2.4109875735775015,0,0,2.4109875735775015,7.4147542045192765,112.24594042050128)" stroke="#0066cc" stroke-width="0.9"><path d="M4.50-14.22L4.50-2.64L10.47-2.64L10.47 0L1.07 0L1.07-14.22L4.50-14.22ZM16.88 0.20L16.88 0.20Q14.44 0.20 12.94-1.25Q11.44-2.71 11.44-5.03L11.44-5.03L11.44-5.30Q11.44-6.92 12.04-8.16Q12.64-9.40 13.79-10.08Q14.94-10.76 16.52-10.76L16.52-10.76Q18.75-10.76 20.04-9.38Q21.33-8.00 21.33-5.53L21.33-5.53L21.33-4.25L14.79-4.25Q14.96-3.36 15.56-2.85Q16.15-2.34 17.10-2.34L17.10-2.34Q18.66-2.34 19.54-3.44L19.54-3.44L21.04-1.66Q20.43-0.81 19.30-0.31Q18.17 0.20 16.88 0.20ZM16.50-8.22L16.50-8.22Q15.06-8.22 14.79-6.31L14.79-6.31L18.11-6.31L18.11-6.56Q18.13-7.35 17.71-7.79Q17.29-8.22 16.50-8.22ZM29.10-10.64L29.04-7.59L27.96-7.67Q26.41-7.67 25.97-6.69L25.97-6.69L25.97 0L22.68 0L22.68-10.57L25.76-10.57L25.87-9.21Q26.70-10.76 28.18-10.76L28.18-10.76Q28.71-10.76 29.10-10.64L29.10-10.64ZM30.17-10.57L33.25-10.57L33.36-9.33Q34.45-10.76 36.38-10.76L36.38-10.76Q38.03-10.76 38.84-9.78Q39.66-8.79 39.69-6.81L39.69-6.81L39.69 0L36.39 0L36.39-6.67Q36.39-7.47 36.06-7.85Q35.74-8.22 34.89-8.22L34.89-8.22Q33.93-8.22 33.46-7.46L33.46-7.46L33.46 0L30.17 0L30.17-10.57ZM50.57 0L49.74-2.66L45.04-2.66L44.22 0L40.56 0L45.77-14.22L48.99-14.22L54.25 0L50.57 0ZM47.38-10.23L45.86-5.30L48.92-5.30L47.38-10.23ZM64.47-5.36L64.47-5.21Q64.47-2.74 63.36-1.27Q62.26 0.20 60.37 0.20L60.37 0.20Q58.92 0.20 57.98-0.87L57.98-0.87L57.98 4.06L54.69 4.06L54.69-10.57L57.76-10.57L57.86-9.59Q58.81-10.76 60.35-10.76L60.35-10.76Q62.30-10.76 63.39-9.32Q64.47-7.88 64.47-5.36L64.47-5.36ZM61.18-5.06L61.18-5.41Q61.18-8.22 59.54-8.22L59.54-8.22Q58.37-8.22 57.98-7.38L57.98-7.38L57.98-3.22Q58.41-2.34 59.56-2.34L59.56-2.34Q61.13-2.34 61.18-5.06L61.18-5.06ZM75.73-5.36L75.73-5.21Q75.73-2.74 74.62-1.27Q73.52 0.20 71.63 0.20L71.63 0.20Q70.18 0.20 69.24-0.87L69.24-0.87L69.24 4.06L65.95 4.06L65.95-10.57L69.02-10.57L69.12-9.59Q70.07-10.76 71.61-10.76L71.61-10.76Q73.56-10.76 74.65-9.32Q75.73-7.88 75.73-5.36L75.73-5.36ZM72.44-5.06L72.44-5.41Q72.44-8.22 70.80-8.22L70.80-8.22Q69.63-8.22 69.24-7.38L69.24-7.38L69.24-3.22Q69.67-2.34 70.82-2.34L70.82-2.34Q72.39-2.34 72.44-5.06L72.44-5.06Z"></path></g></g></svg><style>@media (prefers-color-scheme: light) { :root { filter: none; } }
@media (prefers-color-scheme: dark) { :root { filter: invert(100%); } }
</style></svg>